<svg width="124" height="124" viewBox="0 0 124 124" fill="none" xmlns="http://www.w3.org/2000/svg">
<rect width="124" height="124" rx="4" fill="#0284C7"/>
<path d="M59.2727 103H29.1648V21.5455H59.233C67.5322 21.5455 74.678 23.1761 80.6705 26.4375C86.6894 29.6723 91.3295 34.339 94.5909 40.4375C97.8523 46.5095 99.483 53.7746 99.483 62.233C99.483 70.7178 97.8523 78.0095 94.5909 84.108C91.3561 90.2064 86.7292 94.8864 80.7102 98.1477C74.6913 101.383 67.5455 103 59.2727 103ZM48.8523 86.2159H58.517C63.0777 86.2159 66.9356 85.447 70.0909 83.9091C73.2727 82.3447 75.6723 79.8125 77.2898 76.3125C78.9337 72.786 79.7557 68.0928 79.7557 62.233C79.7557 56.3731 78.9337 51.7064 77.2898 48.233C75.6458 44.733 73.2197 42.214 70.0114 40.6761C66.8295 39.1117 62.9053 38.3295 58.2386 38.3295H48.8523V86.2159Z" fill="white"/>
</svg>
